<?xml version="1.0" standalone="no"?>
<!DOCTYPE svg PUBLIC "-//W3C//DTD SVG 20010904//EN"
 "http://www.w3.org/TR/2001/REC-SVG-20010904/DTD/svg10.dtd">
<svg version="1.0" xmlns="http://www.w3.org/2000/svg"
 width="512.000000pt" height="512.000000pt" viewBox="0 0 512.000000 512.000000"
 preserveAspectRatio="xMidYMid meet">

<g transform="translate(0.000000,512.000000) scale(0.100000,-0.100000)"
fill="currentColor" stroke="none">
<path d="M873 5095 c-122 -34 -228 -117 -279 -216 -31 -61 -148 -375 -165
-442 -19 -79 -7 -200 29 -279 l30 -67 -220 -3 -220 -3 -24 -28 -24 -28 0 -308
0 -308 26 -27 c29 -28 50 -32 87 -15 43 20 47 45 47 309 l0 250 270 0 270 0
341 -94 c187 -52 343 -96 345 -99 3 -3 -40 -81 -96 -174 -55 -92 -142 -250
-192 -350 l-91 -183 -424 0 -423 0 0 50 c0 55 -20 104 -45 114 -33 12 -66 5
-90 -19 -24 -23 -25 -30 -25 -138 0 -110 1 -115 26 -141 27 -26 28 -26 180
-26 l154 0 0 -1409 0 -1408 21 -27 20 -26 2159 0 2159 0 20 26 c20 25 21 39
21 271 0 248 -3 273 -39 300 -20 16 -62 16 -82 0 -35 -27 -39 -54 -39 -251 l0
-196 -785 0 -785 0 0 1330 c0 732 2 1330 5 1330 7 0 88 -164 138 -281 141
-331 234 -647 292 -988 19 -112 25 -124 64 -141 24 -9 35 -9 57 2 33 15 150
177 265 365 44 73 83 133 85 133 12 0 227 -162 344 -259 69 -57 135 -107 147
-112 30 -11 68 4 88 35 16 24 16 33 0 128 -30 184 -86 429 -140 618 -48 165
-78 253 -169 493 l-26 67 210 0 210 0 0 -1015 c0 -889 2 -1020 15 -1045 27
-52 106 -52 132 0 10 20 13 246 13 1043 l0 1017 154 0 c152 0 153 0 180 26
l26 27 0 553 0 553 -24 28 -24 28 -220 3 -220 3 30 67 c36 79 48 200 29 279
-17 67 -134 381 -165 442 -73 143 -255 243 -414 227 -91 -9 -135 -28 -666
-281 -463 -220 -480 -228 -510 -216 -97 40 -97 40 -376 40 -279 0 -279 0 -376
-40 -30 -12 -48 -4 -510 216 -263 125 -508 239 -543 252 -81 30 -189 38 -258
18z m684 -390 c471 -223 501 -239 493 -259 -4 -12 -11 -52 -15 -89 -4 -38 -10
-67 -14 -65 -3 2 -62 33 -131 70 -300 160 -624 268 -809 268 -141 0 -268 -50
-328 -129 -38 -49 -41 -78 -12 -115 33 -42 77 -36 139 19 64 57 108 69 235 62
191 -10 468 -114 813 -305 l102 -57 0 -187 c0 -104 -2 -188 -5 -188 -2 0 -292
79 -642 176 -377 103 -654 185 -678 199 -51 29 -68 48 -98 110 -32 66 -39 104
-27 165 14 73 143 414 174 458 52 74 137 114 236 109 62 -3 92 -16 567 -242z
m2664 235 c53 -15 118 -62 148 -107 31 -46 157 -381 171 -454 12 -60 5 -98
-27 -164 -30 -62 -47 -81 -98 -110 -24 -14 -301 -96 -678 -199 -350 -97 -640
-176 -642 -176 -3 0 -5 85 -5 189 l0 189 78 46 c211 123 551 267 714 300 88
18 206 21 261 5 21 -5 60 -30 88 -55 57 -51 98 -58 136 -22 36 34 31 77 -16
129 -68 78 -180 119 -321 119 -190 0 -539 -119 -845 -287 l-90 -50 -11 78 c-7
43 -14 82 -18 87 -4 7 818 405 984 476 41 18 119 20 171 6z m-1360 -473 c68
-45 69 -51 69 -445 0 -391 -1 -400 -64 -445 -30 -21 -38 -22 -306 -22 -397 0
-370 -34 -370 467 0 394 1 400 69 445 33 22 40 23 301 23 261 0 268 -1 301
-23z m2099 -987 l0 -450 -423 0 -424 0 -91 183 c-50 100 -137 258 -192 350
-56 93 -99 171 -96 174 2 3 154 47 338 98 l333 93 278 1 277 1 0 -450z m-3146
143 l241 -67 60 -61 c37 -38 75 -67 98 -74 20 -7 37 -17 37 -22 0 -5 -31 -56
-68 -112 -284 -424 -498 -912 -617 -1404 -19 -81 -39 -161 -43 -178 -8 -29 -8
-29 -64 57 -31 47 -80 128 -110 179 -79 137 -80 138 -112 149 -22 7 -36 6 -57
-4 -38 -19 -192 -127 -299 -209 -47 -36 -87 -64 -88 -62 -6 6 36 196 75 340
133 500 340 978 611 1413 42 67 80 122 85 122 5 0 118 -30 251 -67z m1828 -55
c114 -184 157 -263 267 -488 149 -307 256 -593 344 -925 39 -144 81 -334 75
-340 -1 -2 -41 26 -88 62 -107 82 -261 190 -299 209 -21 10 -35 11 -57 4 -32
-11 -33 -12 -112 -149 -30 -51 -79 -132 -110 -179 -56 -86 -56 -86 -64 -57 -4
17 -24 97 -43 178 -119 492 -333 980 -617 1404 -37 56 -68 107 -68 112 0 5 17
15 38 22 22 7 61 36 96 73 l60 61 235 67 c130 36 243 67 251 67 9 1 46 -48 92
-121z m-955 -195 c27 -35 223 -330 223 -337 0 -3 -157 -6 -350 -6 -192 0 -350
2 -350 5 0 8 87 143 164 252 l71 103 114 0 c97 0 116 -3 128 -17z m-1773 -570
c-91 -240 -121 -328 -169 -493 -54 -189 -110 -434 -140 -618 -16 -95 -16 -104
0 -128 20 -31 58 -46 88 -35 12 5 78 55 147 112 117 97 332 259 344 259 2 0
41 -60 85 -132 115 -189 232 -351 265 -366 22 -11 33 -11 57 -2 39 17 45 29
64 141 58 341 151 657 292 988 50 117 131 281 138 281 3 0 5 -598 5 -1330 l0
-1330 -785 0 -785 0 0 1360 0 1360 210 0 210 0 -26 -67z m1966 -1293 l0 -1360
-320 0 -320 0 0 1360 0 1360 320 0 320 0 0 -1360z"/>
</g>
</svg>
