<svg width="84" height="17" viewBox="0 0 84 17" fill="none" xmlns="http://www.w3.org/2000/svg">
<path d="M0.34577 11.37C0.34577 11.37 0.574145 11.07 1.04664 10.53C1.72573 9.73567 2.46724 9.03198 3.25952 8.42998C4.48442 7.47819 5.81039 6.75417 7.19702 6.27998C8.9908 5.65677 10.8617 5.4735 12.7095 5.73998C14.8788 6.11176 17.0097 6.78238 19.0646 7.73998C20.1593 8.19998 21.2618 8.73998 22.4115 9.18998C23.5613 9.63998 24.774 10.05 25.9474 10.44C28.3099 11.18 30.8063 12.03 33.342 11.59C35.8778 11.15 38.2481 9.68998 40.6894 8.30998C43.1223 6.78059 45.7042 5.66756 48.3675 4.99998C49.6943 4.75983 51.0412 4.75983 52.368 4.99998C53.6558 5.23553 54.9313 5.56947 56.1874 5.99998C58.6365 6.79998 60.9124 7.80998 63.141 8.52998C65.2046 9.17739 67.3164 9.5461 69.441 9.62998C71.2021 9.74879 72.9651 9.4469 74.6385 8.73998C75.9337 8.21819 77.1409 7.39409 78.198 6.30998C78.8815 5.6161 79.4742 4.7892 79.9541 3.85998C80.1274 3.54998 80.2219 3.27998 80.3085 3.10998L80.4266 2.83998C80.4911 2.70714 80.6269 2.66294 80.7338 2.73998C80.8302 2.81 80.868 2.9625 80.8204 3.08998L80.718 3.38998C80.6259 3.67751 80.5208 3.95798 80.403 4.22998C79.9448 5.26965 79.3541 6.20567 78.6548 6.99998C77.5719 8.2475 76.3099 9.21852 74.9378 9.85998C73.1597 10.6914 71.2718 11.0785 69.378 11C67.1888 10.7892 65.0267 10.2522 62.9363 9.39998C60.6998 8.64998 58.3845 7.72998 55.959 6.99998C53.5019 6.26281 50.9765 5.95995 48.4541 6.09998C45.8633 6.09998 43.4063 7.60998 41.0674 9.17998C38.7285 10.75 36.2321 12.35 33.5074 12.8C32.1701 13.0225 30.817 13.046 29.4754 12.87C28.1797 12.675 26.9045 12.3029 25.6718 11.76C24.4669 11.25 23.3093 10.61 22.2146 10.02C21.12 9.42998 19.9624 8.99998 18.9071 8.48998C16.9099 7.55227 14.8277 6.93744 12.7095 6.65998C10.9295 6.43913 9.13274 6.61854 7.40177 7.18998C6.06607 7.62206 4.77975 8.27072 3.57452 9.11998C2.80102 9.67057 2.06364 10.2993 1.36952 11C0.89702 11.49 0.64502 11.79 0.64502 11.79C0.603546 11.8437 0.54678 11.874 0.48752 11.874C0.428259 11.874 0.371493 11.8437 0.33002 11.79C0.251973 11.6827 0.251973 11.5173 0.33002 11.41L0.34577 11.37Z" fill="#DDBFF7"/>
<path d="M9.0948 5.8901C10.8917 5.53455 12.5791 4.56688 13.9773 3.0901C14.2429 2.83478 14.4629 2.51104 14.623 2.1401C14.7609 1.76867 14.7277 1.3312 14.5364 1.0001C14.182 0.490101 13.5205 0.700101 13.048 1.0001C11.2998 2.1401 9.9768 4.1501 8.7168 6.1001" fill="#DDBFF7"/>
<path d="M9.06316 5.69005C9.06316 5.69005 9.29941 5.69005 9.69316 5.54005C10.2342 5.3965 10.762 5.18202 11.2682 4.90005C11.997 4.52451 12.683 4.02676 13.3078 3.42005C13.6573 3.10041 13.9746 2.72764 14.2528 2.31005C14.4812 1.93005 14.5048 1.37005 14.2528 1.16005C14.0008 0.950045 13.6307 1.06005 13.2842 1.31005C12.9127 1.57405 12.555 1.86798 12.2132 2.19005C11.6036 2.80688 11.0275 3.47505 10.4885 4.19005C9.99241 4.81005 9.59078 5.34005 9.29941 5.70005L8.82691 6.26005C8.75935 6.34521 8.65034 6.34521 8.58278 6.26005C8.53946 6.18579 8.53946 6.0843 8.58278 6.01005C8.58278 6.01005 8.70091 5.75005 8.92928 5.31005C9.24814 4.7068 9.59252 4.12594 9.96091 3.57005C10.4963 2.77398 11.1073 2.06524 11.78 1.46005C12.1656 1.08793 12.5798 0.766292 13.0164 0.500045C13.2662 0.36202 13.5323 0.277542 13.8039 0.250045C14.1309 0.20711 14.4569 0.341479 14.7017 0.620045C14.9204 0.914806 15.0244 1.31806 14.9852 1.72005C14.9524 2.08849 14.8346 2.43641 14.6465 2.72005C14.3207 3.15678 13.953 3.53978 13.5519 3.86005C12.8805 4.44128 12.1625 4.93067 11.4099 5.32005C10.8607 5.57834 10.2975 5.78556 9.72466 5.94005C9.31516 6.06005 9.08678 6.10005 9.08678 6.10005C9.0135 6.08959 8.95346 6.02138 8.93716 5.93005C8.92797 5.87384 8.93825 5.81534 8.96537 5.76942C8.99249 5.7235 9.03385 5.69459 9.07891 5.69005H9.06316Z" fill="#DDBFF7"/>
<path d="M13.5839 6.37988C14.5632 6.85751 15.4753 7.53288 16.285 8.37988C16.9002 8.92499 17.3481 9.72341 17.5529 10.6399C17.6704 11.1495 17.4979 11.695 17.1355 11.9599C16.6866 12.1699 16.2614 11.6499 15.97 11.1799C15.0407 9.67988 14.1509 8.17988 13.2925 6.57988" fill="#DDBFF7"/>
<path d="M13.6624 6.17987C13.6624 6.17987 13.8435 6.26987 14.1585 6.45987C14.5945 6.70982 15.0179 6.9937 15.4264 7.30987C16.0061 7.76352 16.5449 8.29672 17.0329 8.89987C17.3252 9.25729 17.5535 9.69044 17.7022 10.1699C17.9006 10.7383 17.8621 11.3949 17.5999 11.9199C17.5169 12.0753 17.4027 12.1996 17.2691 12.2799H17.214H17.1589H17.0722C16.9912 12.2937 16.9091 12.2937 16.8281 12.2799C16.5659 12.2482 16.3167 12.1196 16.1115 11.9099C15.8091 11.5737 15.5441 11.1868 15.324 10.7599C14.883 10.0199 14.4656 9.32987 14.1427 8.70987C13.8199 8.08987 13.5679 7.55987 13.4025 7.16987C13.2371 6.77987 13.1505 6.55987 13.1505 6.55987C13.1244 6.46816 13.1489 6.36555 13.2108 6.30778C13.2726 6.25 13.3571 6.25085 13.4182 6.30987C13.4182 6.30987 13.5679 6.47987 13.8041 6.79987C14.0404 7.11987 14.3711 7.57987 14.7412 8.14987C15.1114 8.71987 15.5287 9.42987 15.9382 10.1499C16.1262 10.5074 16.3397 10.8421 16.5761 11.1499C16.8202 11.4299 17.0014 11.4599 17.151 11.2699C17.3178 10.9466 17.3529 10.5415 17.2455 10.1799C17.1375 9.76271 16.9633 9.37811 16.7336 9.04987C16.2832 8.50792 15.7805 8.04085 15.2374 7.65987C14.8488 7.33885 14.4407 7.05795 14.0167 6.81987C13.7096 6.65987 13.5206 6.57987 13.5206 6.57987C13.4643 6.55486 13.4229 6.49363 13.4118 6.41925C13.4007 6.34486 13.4217 6.26862 13.4669 6.21925C13.5121 6.16987 13.5746 6.15486 13.6309 6.17987H13.6624Z" fill="#DDBFF7"/>
<path d="M19.3874 7.80005C20.9498 7.86167 22.5101 7.60853 24.0101 7.05005C24.8059 6.83633 25.5329 6.32424 26.0969 5.58005C26.1634 5.50134 26.2054 5.39483 26.2151 5.28005C26.2151 5.05005 26.0024 4.93005 25.8292 4.88005C24.6099 4.68147 23.3745 5.03559 22.3406 5.88005C21.32 6.71584 20.2388 7.42574 19.1118 8.00005" fill="#DDBFF7"/>
<path d="M19.3875 7.58974H20.0333C20.6024 7.58363 21.1706 7.53018 21.7343 7.42974C22.5366 7.2959 23.3274 7.06827 24.0968 6.74974C24.5139 6.57809 24.9132 6.34306 25.2859 6.04974C25.4669 5.89817 25.6334 5.7203 25.782 5.51974C25.843 5.43822 25.8959 5.34755 25.9395 5.24973C25.8775 5.21242 25.8109 5.18875 25.7427 5.17973C25.6326 5.16676 25.5219 5.16676 25.4119 5.17973C25.1997 5.15483 24.9862 5.15483 24.774 5.17973C24.3535 5.26639 23.9416 5.41056 23.5455 5.60974C22.8265 6.03118 22.1248 6.49844 21.4429 7.00974C20.9409 7.3736 20.4137 7.67821 19.8679 7.91974C19.6532 8.01442 19.4316 8.08142 19.2064 8.11974C19.1628 8.1461 19.1125 8.14814 19.0676 8.12535C19.0228 8.10257 18.9874 8.05703 18.9702 7.99974C18.9631 7.91131 18.9969 7.82566 19.0568 7.77974C19.0568 7.77974 19.2694 7.64974 19.6238 7.39974C19.9782 7.14974 20.4585 6.74974 21.0492 6.25974C21.7377 5.66208 22.4774 5.16557 23.2542 4.77973C23.7136 4.55678 24.1967 4.42197 24.6874 4.37973C24.9491 4.34347 25.2132 4.34347 25.4749 4.37973C25.5993 4.39819 25.7228 4.42489 25.845 4.45973C26.0144 4.4963 26.1741 4.58563 26.3097 4.71973C26.4383 4.83827 26.5144 5.0279 26.5144 5.22973C26.5189 5.27622 26.5189 5.32325 26.5144 5.36974C26.503 5.44379 26.4817 5.51482 26.4514 5.57974C26.3749 5.73784 26.2792 5.87959 26.1679 5.99974C25.9818 6.22465 25.7725 6.41641 25.5458 6.56974C25.1258 6.86002 24.6786 7.08177 24.2149 7.22974C23.424 7.50524 22.6188 7.70908 21.8052 7.83974C21.0649 7.99974 20.4585 7.99974 20.0412 7.99974H19.3797C19.2883 7.99974 19.2143 7.90572 19.2143 7.78974C19.2143 7.67376 19.2883 7.57974 19.3797 7.57974L19.3875 7.58974Z" fill="#DDBFF7"/>
<path d="M23.3331 10.0005C24.4719 10.834 25.5429 11.8088 26.5303 12.9105C26.8295 13.2091 27.0763 13.5838 27.2548 14.0105C27.4385 14.4471 27.411 14.9782 27.1839 15.3805C26.8236 15.8225 26.2691 15.885 25.8531 15.5305C25.4602 15.175 25.1369 14.7097 24.9081 14.1705L22.7109 9.77051" fill="#DDBFF7"/>
<path d="M23.4115 9.80029C23.4115 9.80029 24.136 10.3203 25.1598 11.2303C25.6716 11.6903 26.2308 12.2303 26.8371 12.9103C27.1906 13.2532 27.4497 13.7292 27.5774 14.2703C27.7477 14.9507 27.4998 15.6868 26.9946 16.0003C26.4896 16.2711 25.9088 16.1756 25.4748 15.7503C25.1215 15.4106 24.8245 14.9859 24.6006 14.5003C24.1754 13.6803 23.8131 12.9103 23.4745 12.2303C23.1359 11.5503 22.9311 10.9603 22.7736 10.5403C22.6161 10.1203 22.5374 9.88029 22.5374 9.88029C22.5198 9.82608 22.5208 9.765 22.5403 9.71181C22.5597 9.65863 22.5958 9.6182 22.6398 9.60029C22.7027 9.57109 22.7732 9.59056 22.8209 9.65029L23.1989 10.2003C23.4273 10.5603 23.7423 11.0803 24.0966 11.7203C24.451 12.3603 24.8369 13.1503 25.2385 13.9803C25.4239 14.3633 25.655 14.7074 25.9236 15.0003C26.153 15.2596 26.4702 15.3538 26.7663 15.2503C27.042 15.107 27.1906 14.7255 27.1128 14.3603C27.0273 13.9246 26.8374 13.5332 26.5694 13.2403C26.076 12.6249 25.5498 12.0536 24.9944 11.5303C24.5997 11.153 24.1897 10.8026 23.7659 10.4803L23.2776 10.1203C23.2386 10.093 23.2098 10.0468 23.198 9.99216C23.1861 9.93756 23.1921 9.87918 23.2146 9.83029C23.2623 9.73137 23.3622 9.69637 23.443 9.75029L23.4115 9.80029Z" fill="#DDBFF7"/>
<path d="M30.6254 12.0003C32.8835 11.1884 34.9182 9.59171 36.5001 7.39027C36.6658 7.20342 36.7745 6.94858 36.8072 6.67027C36.8072 6.15027 36.3584 5.81027 35.9489 5.78027C34.9174 5.83965 33.95 6.4322 33.2714 7.42027C32.0652 8.8298 30.9778 10.3949 30.0269 12.0903" fill="#DDBFF7"/>
<path d="M30.5777 11.8005C30.5777 11.8005 30.8375 11.7205 31.2628 11.5305C31.8578 11.2643 32.4325 10.9295 32.9795 10.5305C33.76 9.99915 34.4893 9.35486 35.153 8.6105C35.5252 8.20119 35.8776 7.76373 36.2083 7.3005C36.3815 7.0605 36.5233 6.8105 36.5075 6.6605C36.4918 6.5105 36.4052 6.3605 36.2162 6.2605C35.7842 6.10762 35.3227 6.16837 34.9247 6.4305C34.5063 6.69876 34.1172 7.03491 33.767 7.4305C33.4127 7.8305 33.074 8.2505 32.7669 8.6505C32.4598 9.0505 32.1605 9.4305 31.8928 9.7905C31.3494 10.4905 30.9163 11.1105 30.6013 11.5305L30.1052 12.2005C30.0741 12.2408 30.0315 12.2635 29.987 12.2635C29.9426 12.2635 29.9 12.2408 29.8689 12.2005C29.8256 12.1262 29.8256 12.0248 29.8689 11.9505C29.8689 11.9505 29.987 11.6405 30.2312 11.1405C30.5704 10.4397 30.9494 9.77126 31.3652 9.1405C31.9553 8.24941 32.6062 7.42621 33.3103 6.6805C33.7183 6.22159 34.1841 5.85312 34.6884 5.5905C35.2592 5.27973 35.9053 5.27973 36.476 5.5905C36.8333 5.77437 37.0627 6.22122 37.0509 6.7105C36.9933 7.11012 36.8189 7.46733 36.5627 7.7105C36.204 8.17453 35.8197 8.60562 35.4129 9.0005C34.702 9.72448 33.9402 10.3638 33.137 10.9105C32.5635 11.2905 31.9717 11.6245 31.3652 11.9105C31.1382 12.0221 30.9069 12.1189 30.6722 12.2005C30.5815 12.2274 30.4895 12.1625 30.4595 12.0505C30.439 11.9379 30.4906 11.8243 30.5777 11.7905V11.8005Z" fill="#DDBFF7"/>
<path d="M34.6257 12.1104C36.1214 12.5796 37.5939 13.1606 39.0357 13.8504C39.5948 14.1104 40.2327 14.5204 40.3193 15.2604C39.7838 15.9304 38.9018 15.7304 38.2009 15.3904C36.7574 14.7058 35.4467 13.6349 34.3579 12.2504" fill="#DDBFF7"/>
<path d="M34.6651 11.9097C35.6967 12.2697 36.7362 12.6097 37.7521 13.0397C38.264 13.2597 38.7759 13.4397 39.2877 13.6697C39.5671 13.7939 39.832 13.9654 40.0752 14.1797C40.3494 14.4139 40.5435 14.7712 40.6186 15.1797C40.6323 15.2882 40.6062 15.3987 40.5477 15.4797C40.2951 15.7989 39.9648 15.9998 39.6106 16.0497C39.2802 16.1086 38.9441 16.0917 38.6184 15.9997C38.4648 15.9711 38.3143 15.9208 38.1695 15.8497L37.7521 15.6597C37.4765 15.5197 37.2087 15.3597 36.9646 15.1997C36.4269 14.8728 35.9197 14.4703 35.4526 13.9997C34.9937 13.5303 34.5858 12.9855 34.2399 12.3797C34.1779 12.2952 34.1779 12.1642 34.2399 12.0797C34.3008 12.0351 34.3758 12.0351 34.4367 12.0797C34.9092 12.4897 35.3581 12.9097 35.8306 13.2797C36.3031 13.6497 36.7677 13.9997 37.256 14.2797C37.5001 14.4397 37.7442 14.5897 37.9962 14.7297L38.3742 14.9197C38.5002 14.9797 38.6262 15.0397 38.7444 15.0797C39.1849 15.3503 39.7032 15.3202 40.1225 14.9997L40.0359 15.3197C40.0359 14.8497 39.587 14.4397 39.1224 14.1897C38.6577 13.9397 38.1459 13.6697 37.6419 13.4597C36.6403 13.0102 35.6203 12.6296 34.5864 12.3197C34.5418 12.3079 34.5031 12.2734 34.4793 12.2242C34.4554 12.175 34.4486 12.1155 34.4604 12.0597C34.4835 11.9497 34.5689 11.8803 34.6572 11.8997L34.6651 11.9097Z" fill="#DDBFF7"/>
<path d="M41.8548 7.99999C42.9889 7.10755 44.0312 6.03934 44.9575 4.81999C45.3096 4.41388 45.5797 3.9063 45.745 3.33999C45.804 3.14699 45.804 2.93299 45.745 2.73999C45.6246 2.53949 45.4395 2.41834 45.241 2.40999C44.5012 2.29484 43.7601 2.611 43.225 3.26999C42.8741 3.7718 42.5895 4.34254 42.3824 4.95999L40.7129 9.10999" fill="#DDBFF7"/>
<path d="M41.7605 7.7896L42.2645 7.3896C42.6998 7.02425 43.1179 6.62691 43.5166 6.1996C44.0876 5.59398 44.6147 4.92464 45.0917 4.1996C45.3289 3.86497 45.48 3.44629 45.5248 2.9996C45.5248 2.8496 45.4618 2.8196 45.2964 2.7596C45.2046 2.75335 45.1126 2.75335 45.0208 2.7596H44.7373C44.363 2.81959 44.0075 3.00224 43.7056 3.2896C43.4213 3.58464 43.1857 3.94831 43.0126 4.3596C42.8236 4.7796 42.6583 5.2396 42.5008 5.6696C42.3433 6.0996 42.17 6.4996 42.0125 6.8596C41.6896 7.5896 41.414 8.1796 41.225 8.5896C41.036 8.9996 40.8864 9.2196 40.8864 9.2196C40.861 9.26716 40.8213 9.29943 40.7767 9.30888C40.7321 9.31833 40.6863 9.30413 40.6501 9.2696C40.5717 9.2203 40.5345 9.10446 40.5635 8.9996C40.5635 8.9996 40.6265 8.7296 40.7525 8.2796C40.8785 7.8296 41.0833 7.1696 41.3431 6.4096C41.603 5.6496 41.9259 4.8096 42.359 3.8496C42.584 3.32052 42.9086 2.87045 43.304 2.5396C43.7195 2.20487 44.1982 2.01834 44.69 1.9996C44.8159 1.98972 44.9421 1.98972 45.068 1.9996C45.193 2.01783 45.3167 2.04791 45.4382 2.0896C45.5867 2.14734 45.7219 2.25033 45.8319 2.3896C45.9437 2.55336 46.0052 2.76286 46.0052 2.9796C45.9444 3.58041 45.7251 4.13735 45.383 4.5596C45.0917 4.9596 44.8082 5.2996 44.5325 5.6296C44.2569 5.9596 43.9813 6.2496 43.745 6.5196C43.1745 7.1018 42.5804 7.64587 41.9653 8.1496C41.9277 8.17903 41.8825 8.18819 41.8396 8.17504C41.7967 8.1619 41.7597 8.12753 41.7369 8.0796C41.682 7.99061 41.6925 7.86244 41.7605 7.7896Z" fill="#DDBFF7"/>
<path d="M45.3751 6.5C46.9254 6.92948 48.4279 7.60127 49.8481 8.5C50.0289 8.59745 50.1923 8.74031 50.3285 8.92C50.62 9.43036 50.5475 10.1409 50.1631 10.54C49.7791 10.9114 49.2771 11.0232 48.8165 10.84C48.362 10.6601 47.9375 10.3753 47.5643 10C46.5103 9.03093 45.5272 7.9432 44.627 6.75C44.627 6.75 44.627 6.82 44.627 6.75" fill="#DDBFF7"/>
<path d="M45.4145 6.29035C45.4145 6.29035 46.2492 6.52035 47.4777 7.01035C48.092 7.26035 48.785 7.61035 49.5252 8.01035L50.0922 8.33035C50.3432 8.45831 50.5499 8.69593 50.675 9.00035C50.9103 9.65016 50.7749 10.4195 50.3442 10.8803C49.9322 11.2895 49.4003 11.4501 48.8874 11.3203C48.4367 11.2034 48.0103 10.9684 47.6352 10.6303C47.016 10.1083 46.4313 9.52303 45.887 8.88035C45.5064 8.42555 45.1512 7.93771 44.8239 7.42035L44.5404 7.00035L44.501 6.92035C44.5635 6.98207 44.6511 6.98207 44.7136 6.92035C44.7687 6.84035 44.7136 6.83035 44.7609 6.81035C44.7666 6.78417 44.7666 6.75652 44.7609 6.73035C44.7609 6.73035 44.69 6.59035 44.6349 6.60035C44.5797 6.61035 44.5482 6.60035 44.5404 6.60035C44.6212 6.54643 44.7211 6.58143 44.7687 6.68035C44.7913 6.72924 44.7973 6.78762 44.7854 6.84222C44.7735 6.89683 44.7448 6.94303 44.7057 6.97035C44.7057 6.97035 44.7057 6.97035 44.5955 6.97035C44.5291 6.96221 44.4716 6.90843 44.4459 6.83035C44.4393 6.78742 44.4393 6.74328 44.4459 6.70035C44.4506 6.63897 44.473 6.58199 44.5089 6.54035C44.5768 6.46616 44.6772 6.46616 44.7451 6.54035L44.8002 6.59035L45.1389 6.92035L46.3359 8.12035C46.832 8.61035 47.3911 9.20035 48.0211 9.78035C48.3109 10.0556 48.6359 10.2653 48.9819 10.4003C49.3042 10.5154 49.6498 10.4538 49.9347 10.2303C50.1848 10.0056 50.2928 9.60213 50.2025 9.23035C50.1159 8.91035 49.6827 8.70035 49.3441 8.46035C48.7049 8.05341 48.0445 7.70259 47.3675 7.41035C46.9025 7.19703 46.4294 7.01347 45.95 6.86035L45.3751 6.70035C45.286 6.67544 45.2296 6.56355 45.2491 6.45035C45.2722 6.34037 45.3576 6.27097 45.446 6.29035H45.4145Z" fill="#DDBFF7"/>
<path d="M51.305 5.32011C53.447 5.00011 55.6914 4.58011 57.4633 3.00011C57.7783 2.72011 58.1012 2.24011 57.92 1.81011C57.82 1.61281 57.6655 1.47013 57.4869 1.41011C56.1081 0.951022 54.6397 1.31953 53.5022 2.41011C52.3209 3.41011 51.3286 4.67011 50.1553 5.64011" fill="#DDBFF7"/>
<path d="M51.2815 5.11037L51.9902 5.00037C52.4391 4.93037 53.077 4.81037 53.833 4.61037C54.69 4.40012 55.5214 4.04707 56.3057 3.56037C56.7327 3.28986 57.132 2.95403 57.4948 2.56037C57.6523 2.37037 57.739 2.11037 57.6996 2.01037C57.6602 1.91037 57.5263 1.79037 57.2822 1.72037C56.3773 1.47462 55.4332 1.6373 54.6126 2.18037C54.196 2.40356 53.7977 2.67822 53.4235 3.00037C53.0691 3.30037 52.7462 3.62037 52.4391 3.91037C51.817 4.50037 51.2893 4.99037 50.8641 5.29037C50.6568 5.45522 50.4411 5.60222 50.2183 5.73037C50.1787 5.75431 50.1331 5.75722 50.0917 5.73846C50.0504 5.7197 50.0166 5.68081 49.9978 5.63037C49.9591 5.55431 49.9591 5.45643 49.9978 5.38037L50.5255 4.78037C50.8562 4.40037 51.313 3.84037 51.9036 3.18037C52.2028 2.85037 52.5336 2.52037 52.9195 2.18037C53.3214 1.82707 53.7485 1.52241 54.1952 1.27037C54.6937 0.984865 55.2258 0.805791 55.7702 0.740372C56.3428 0.655085 56.9232 0.74421 57.4633 1.00037C57.6148 1.05385 57.7584 1.13829 57.8886 1.25037C58.0546 1.39006 58.1728 1.60446 58.2193 1.85037C58.2616 2.29594 58.111 2.73577 57.8256 3.00037C57.4092 3.40513 56.9541 3.74114 56.4711 4.00037C55.6433 4.44956 54.78 4.78481 53.896 5.00037C53.1085 5.20037 52.4785 5.29037 52.0296 5.38037L51.3287 5.51037C51.2383 5.52268 51.1557 5.44407 51.1397 5.33037C51.1305 5.27417 51.1408 5.21567 51.1679 5.16975C51.195 5.12383 51.2364 5.09492 51.2815 5.09037V5.11037Z" fill="#DDBFF7"/>
<path d="M56.5733 6.54004C57.7156 7.1762 58.7384 8.1136 59.5737 9.29004C60.0943 9.94221 60.4413 10.7849 60.5659 11.7C60.6121 12.0177 60.5491 12.3453 60.3927 12.6C60.1434 12.8694 59.7952 12.9353 59.4949 12.77C58.9412 12.4712 58.4679 11.9744 58.1325 11.34C57.312 9.88936 56.6026 8.34231 56.0142 6.72004" fill="#DDBFF7"/>
<path d="M56.6442 6.34961C56.6442 6.34961 56.8332 6.44961 57.1718 6.67961C57.6344 6.99664 58.0791 7.35417 58.5027 7.74961C59.0885 8.33432 59.6172 9.00574 60.0777 9.74961C60.3563 10.1832 60.5698 10.6781 60.7077 11.2096C60.7835 11.4995 60.8182 11.8043 60.81 12.1096C60.8206 12.5085 60.6689 12.8862 60.4084 13.1096C60.1565 13.3058 59.8544 13.3703 59.5658 13.2896C59.4413 13.2656 59.3196 13.2219 59.2035 13.1596C59.0863 13.1017 58.973 13.0315 58.8649 12.9496C58.4799 12.6493 58.1432 12.2591 57.8727 11.7996C57.4009 11.0631 56.9918 10.2653 56.652 9.41961C56.4165 8.82912 56.2087 8.22138 56.0299 7.59961C55.9039 7.14961 55.8409 6.87961 55.8409 6.87961C55.8204 6.76699 55.872 6.65341 55.959 6.61961C56.0267 6.59115 56.101 6.62396 56.1402 6.69961C56.1402 6.69961 56.274 6.91961 56.4788 7.30961C56.6835 7.69961 56.967 8.30961 57.2663 8.95961C57.5655 9.60961 57.9672 10.4296 58.4318 11.2096C58.6591 11.5848 58.9238 11.921 59.2193 12.2096C59.4769 12.4621 59.8171 12.5335 60.1249 12.3996C60.3218 12.3196 60.3612 11.7896 60.2745 11.3196C60.1771 10.8434 60.0087 10.3953 59.7784 9.99961C59.3651 9.2644 58.8659 8.61358 58.2979 8.06961C57.902 7.68457 57.4773 7.34964 57.03 7.06961C56.6993 6.85961 56.5024 6.75961 56.5024 6.75961C56.418 6.71773 56.3758 6.59729 56.4079 6.48961C56.4442 6.38101 56.5415 6.32807 56.6284 6.36961L56.6442 6.34961Z" fill="#DDBFF7"/>
<path d="M61.865 8.29033L62.8494 8.22033C63.7696 8.1851 64.6837 8.01736 65.5742 7.72033C66.4694 7.42087 67.2529 6.73045 67.787 5.77033C67.9445 5.46033 68.0627 5.03033 67.8815 4.77033C67.8006 4.65768 67.6972 4.57478 67.5823 4.53033C66.4483 3.99033 65.2198 4.71033 64.2275 5.64033C63.3505 6.68876 62.3552 7.56508 61.2744 8.24033L61.5264 8.39033" fill="#DDBFF7"/>
<path d="M61.8574 8.08006C63.0918 8.07968 64.3214 7.88827 65.5193 7.51006C66.1018 7.29035 66.6393 6.91149 67.0943 6.40006C67.3072 6.15461 67.4879 5.86769 67.6298 5.55006C67.6901 5.42262 67.7253 5.27851 67.7322 5.13006C67.7322 5.01006 67.7322 4.98006 67.6613 4.94006C67.55 4.86712 67.4304 4.81652 67.3069 4.79006C67.1796 4.75842 67.0506 4.73837 66.921 4.73006C66.654 4.73705 66.389 4.7909 66.1335 4.89006C65.5851 5.10886 65.0708 5.44725 64.6137 5.89006C64.1412 6.35006 63.6687 6.89006 63.1489 7.34006C62.6279 7.84739 62.0341 8.22102 61.4007 8.44006V7.95006L61.6369 8.15006C61.7138 8.21751 61.7347 8.35025 61.6842 8.45006C61.6423 8.52733 61.5652 8.55998 61.4952 8.53006L61.2196 8.43006C61.1183 8.38716 61.0625 8.24968 61.0936 8.12006C61.1022 8.07403 61.1214 8.03229 61.1487 8.00006H61.2038C61.7261 7.62316 62.2101 7.16643 62.6449 6.64006C63.1102 6.10268 63.5964 5.59537 64.1018 5.12006C64.6398 4.60723 65.2488 4.22731 65.8973 4.00006C66.2343 3.89334 66.5826 3.8562 66.9289 3.89006C67.1107 3.91361 67.2901 3.96051 67.4644 4.03006C67.6479 4.09015 67.8213 4.19178 67.9763 4.33006C68.1781 4.53289 68.28 4.85645 68.244 5.18006C68.2141 5.43025 68.1415 5.66914 68.0314 5.88006C67.8395 6.23014 67.6117 6.54625 67.3542 6.82006C66.8456 7.33339 66.2622 7.71401 65.6374 7.94006C65.0246 8.15166 64.3968 8.28565 63.7632 8.34006L61.8968 8.51006C61.8039 8.5159 61.724 8.42764 61.7157 8.31006C61.7113 8.25269 61.7257 8.19556 61.7555 8.15207C61.7853 8.10858 61.8278 8.08254 61.8732 8.08006H61.8574Z" fill="#DDBFF7"/>
<path d="M68.055 10.3299C69.4934 10.8728 70.8545 11.7032 72.087 12.7899C72.3093 12.973 72.4888 13.2286 72.6068 13.5299C72.7306 13.8396 72.6828 14.2153 72.4887 14.4599C72.3487 14.588 72.1809 14.6579 72.0083 14.6599C71.1438 14.7057 70.2907 14.3972 69.5749 13.7799C68.8708 13.1641 68.2351 12.4308 67.6849 11.5999C67.2833 11.0399 66.8974 10.4699 66.5352 9.87988" fill="#DDBFF7"/>
<path d="M68.1101 10.1305L68.6534 10.3905C68.9999 10.5605 69.5039 10.7705 70.0867 11.0905C70.7625 11.4552 71.4109 11.897 72.0239 12.4105C72.4429 12.6838 72.7579 13.1594 72.8981 13.7305C72.9534 14.1024 72.8483 14.4835 72.6224 14.7305C72.3882 14.9236 72.1142 15.0244 71.8349 15.0205C70.9316 15.0649 70.0406 14.7427 69.2913 14.1005C68.6608 13.5767 68.0955 12.9363 67.6139 12.2005C67.4232 11.916 67.2445 11.6189 67.0784 11.3105C66.9288 11.0505 66.7949 10.8205 66.7004 10.6205L66.4248 10.0005C66.3815 9.89486 66.4088 9.76469 66.4878 9.70049C66.5487 9.65583 66.6238 9.65583 66.6847 9.70049C66.6847 9.70049 66.8501 9.87049 67.1178 10.2005C67.286 10.3862 67.4464 10.5832 67.5982 10.7905L68.2046 11.5505C68.6857 12.1915 69.213 12.774 69.7796 13.2905C70.0902 13.5588 70.4229 13.7835 70.7718 13.9605C71.1263 14.1363 71.5018 14.2343 71.8822 14.2505C72.3232 14.2505 72.4649 14.1905 72.4649 13.7805C72.4649 13.3705 72.1342 13.0805 71.8271 12.7805C71.2606 12.2408 70.6444 11.7909 69.9922 11.4405C69.5325 11.1694 69.062 10.9291 68.5826 10.7205L67.9998 10.5305C67.929 10.479 67.896 10.3718 67.9207 10.273C67.9453 10.1742 68.0209 10.1107 68.1022 10.1205L68.1101 10.1305Z" fill="#DDBFF7"/>
<path d="M73.3153 9.76023C74.1381 9.1427 74.8927 8.38948 75.5597 7.52023C76.2282 6.6363 76.5984 5.45574 76.5913 4.23023C76.5913 3.82023 76.4102 3.32023 76.0873 3.33023C75.9697 3.34253 75.8575 3.39814 75.7644 3.49023C74.9788 4.24909 74.3959 5.29644 74.0949 6.49023C73.7915 7.68545 73.4339 8.85741 73.0239 10.0002L73.2208 9.79023" fill="#DDBFF7"/>
<path d="M73.2211 9.57995C74.1503 8.91734 74.9752 8.0427 75.6544 6.99995C75.9595 6.47473 76.1765 5.87576 76.2923 5.23995C76.3433 4.93108 76.3592 4.61454 76.3396 4.29995C76.3443 4.0676 76.273 3.84313 76.1427 3.67995C76.1098 3.66376 76.0733 3.66376 76.0403 3.67995C75.9451 3.75618 75.8555 3.84321 75.7726 3.93995C75.5882 4.13623 75.4242 4.36135 75.2843 4.60995C74.9879 5.12521 74.7444 5.68641 74.5598 6.27995L73.9928 8.16995C73.7872 8.8293 73.523 9.45669 73.2053 10.0399L72.8825 9.70995L73.103 9.53995C73.1836 9.47769 73.2886 9.50881 73.3392 9.60995C73.3825 9.6842 73.3825 9.78569 73.3392 9.85995L73.1738 10.1099C73.1173 10.2287 72.9957 10.2667 72.9022 10.1949C72.8086 10.1232 72.7787 9.96869 72.8352 9.84995V9.77995C73.0085 9.14995 73.1581 8.51995 73.2998 7.86995C73.4419 7.18844 73.6208 6.52019 73.8353 5.86995C74.0559 5.19534 74.3531 4.56533 74.7173 3.99995C74.9149 3.71621 75.1368 3.46131 75.3788 3.23995C75.5092 3.14397 75.6462 3.06363 75.7883 2.99995C76.0098 2.87641 76.2658 2.90665 76.4656 3.07995C76.739 3.38183 76.8824 3.83149 76.8514 4.28995C76.8434 4.66231 76.7984 5.03189 76.7176 5.38995C76.5542 6.07891 76.2867 6.72086 75.9301 7.27995C75.2002 8.32083 74.3474 9.21145 73.4022 9.91995C73.3383 9.99741 73.2377 9.99741 73.1738 9.91995C73.1466 9.87401 73.1355 9.81592 73.1429 9.75923C73.1503 9.70254 73.1758 9.6522 73.2132 9.61995L73.2211 9.57995Z" fill="#DDBFF7"/>
<path d="M77.111 8.30965C78.4005 7.8591 79.7177 7.54799 81.0485 7.37965C81.4495 7.28606 81.8629 7.33096 82.2455 7.50965C82.6374 7.70516 82.851 8.24336 82.7417 8.75965C82.5782 9.13296 82.287 9.38811 81.9542 9.44965C80.9996 9.77937 79.9999 9.8408 79.0247 9.62965C78.1066 9.45867 77.2078 9.14984 76.3472 8.70965" fill="#DDBFF7"/>
<path d="M77.0717 8.09991C77.0717 8.09991 77.8592 7.83991 79.0798 7.51991C79.6862 7.36991 80.395 7.23991 81.1667 7.10991C81.6045 6.99891 82.0589 7.07632 82.4582 7.32991C82.6824 7.50005 82.8587 7.75544 82.9622 8.05991C83.0742 8.41506 83.0449 8.81691 82.8835 9.13991C82.5612 9.60507 82.1211 9.91277 81.6392 10.0099C81.2328 10.1454 80.8151 10.2193 80.395 10.2299C80.0083 10.2377 79.6216 10.2144 79.2373 10.1599C78.8999 10.1105 78.5656 10.0302 78.2372 9.91991C77.7402 9.76338 77.2573 9.54221 76.7961 9.25991C76.6219 9.15819 76.4535 9.04125 76.2921 8.90991C76.2152 8.84246 76.1943 8.70973 76.2448 8.60991C76.2835 8.53323 76.3566 8.49689 76.426 8.51991L76.9693 8.65991C77.3158 8.74991 77.8041 8.88991 78.3947 8.99991C78.6782 9.05991 79.009 9.12991 79.3397 9.16991C79.6894 9.23074 80.042 9.26081 80.395 9.25991C80.7642 9.26267 81.133 9.22587 81.4975 9.14991C81.8292 9.12497 82.1461 8.96746 82.4031 8.69991C82.5606 8.51991 82.4582 8.07991 82.2141 7.83991C81.9065 7.62704 81.5528 7.54635 81.2061 7.60991C80.5144 7.67046 79.8257 7.77728 79.1428 7.92991C78.4745 8.0673 77.8142 8.26106 77.1662 8.50991C77.1245 8.52901 77.0784 8.526 77.0384 8.50155C76.9984 8.4771 76.9679 8.43327 76.9536 8.37991C76.9275 8.26695 76.9761 8.14797 77.0638 8.10991L77.0717 8.09991Z" fill="#DDBFF7"/>
<path d="M79.7496 4.40971C79.523 3.27818 79.7302 2.07719 80.3087 1.16971C80.4345 0.893735 80.6243 0.673737 80.8521 0.539708C81.2528 0.42128 81.6623 0.687597 81.8207 1.16971C81.9664 1.64916 81.9664 2.18026 81.8207 2.65971C81.6892 3.2239 81.4354 3.72979 81.0884 4.11971C80.7344 4.51007 80.2722 4.7045 79.8047 4.65971" fill="#DDBFF7"/>
<path d="M79.7496 4.40971C79.523 3.27818 79.7302 2.07719 80.3087 1.16971C80.4345 0.893735 80.6243 0.673737 80.8521 0.539708C81.2528 0.42128 81.6623 0.687597 81.8207 1.16971C81.9664 1.64916 81.9664 2.18026 81.8207 2.65971C81.6892 3.2239 81.4354 3.72979 81.0884 4.11971C80.7344 4.51007 80.2722 4.7045 79.8047 4.65971" stroke="#DDBFF7" stroke-linecap="round" stroke-linejoin="round"/>
</svg>
